<svg xmlns="http://www.w3.org/2000/svg" width="80.723" height="50.101" viewBox="0 0 80.723 50.101">
  <path id="logo1" d="M369.759,201.835c-1.315-8.244-2.6-13.35-5.211-15.211-6.572-5.02-38.817-3.1-38.817-3.1a17.785,17.785,0,0,0-10.5,3.267,34.943,34.943,0,0,0-2.823,2.14,194.557,194.557,0,0,1,30.059-.411c.961.06,1.442,0,.421,2.042s-4.446,8.35-4.446,8.35a3.772,3.772,0,0,1-2.944.781c-3.113-.2-24.448.4-32.265-.425-7.812,2.573-9.981,4.412-10.267,5.882,0,.022-.64,1.783,2.011,2.533,1.815.514,18.619.716,18.619.716a40.456,40.456,0,0,0,8.176-.656c3.486-.929,9.28-2.285,10.4-2.535,2.188-.488,3.033.849,2.289,3.005-1.061,3.077-1.553,3.529-5.96,3.735-20.425.955-37.422-.944-37.339-1.553a2.95,2.95,0,0,0-1.37,1.715,26.135,26.135,0,0,0,0,4.938c.863.55.829,1.069,8.531,1.557,13.121.832,25.709,1.246,27.351,1.215,1.252-.023,2.395-.142,1.73,1.327s-1.2,2.5-7.644,2.775-19.216-.841-22.967-1.193c-4.989-.469-6.31-1.577-6.736-2.028.139,1.666.081,2.4,1.423,3.338.35,1.873,1.184,4.273,3.043,5.337a8.809,8.809,0,0,0,7.108.67c1.334-.42,2.482-1.76,3.29-3.617,7.554.645,14.8.637,16.855.637a87.024,87.024,0,0,0,8.767-.2c.358,1.863,1.194,4.222,3.031,5.273a8.807,8.807,0,0,0,7.107.669c2.321-.731,4.086-4.227,4.451-8.423l15.716-2.729a4.434,4.434,0,0,0,1.592,2.783,5.818,5.818,0,0,0,4.752.782.316.316,0,0,0,.157-.07c2.114-.957,3.41-6.206,2.507-10.051C370.2,213.671,370.949,209.3,369.759,201.835Zm-26.3,21.433c-.1,3.43-1.488,6.173-3.1,6.126s-2.838-2.866-2.739-6.3,1.488-6.173,3.1-6.126S343.557,219.839,343.457,223.268Zm1.162-5.32c-1.176-4.353-3.183-5.368-7.065-4.966,3.019-4.343,7.223-1.66,7.116,3.27C344.658,216.821,344.64,217.39,344.619,217.948Zm10.858-16.516c-2.842.1-6.185.331-8.592.515-.005-.29-.014-.585-.029-.888,1.409-.146,4.107-.435,5.236-.63,1.562-.27,1.262-1.683.931-4.169s-1.832-2.08-3.3-2.109-1.473.451-1.652.841-.15,2.914-.33,3.184c-.127.189-.741.2-1.1.192-.22-2.065-.54-4.094-.782-5.5.693-1.246,1.209-2.131,1.209-2.131s.96-2.283,3.064-2.523a11.2,11.2,0,0,1,3.244,0S355.838,196.866,355.477,201.432Zm3.945-.361c.056-3.064-2.869-12.963-2.869-12.963.393.133,4.567-.685,7.059,1.419,1.98,1.675,2.981,9.39,2.981,11.115C365.446,200.921,364.33,200.745,359.423,201.071Zm9.58,17.8c-.183,2.27-1.157,4.041-2.175,3.959s-1.694-1.987-1.51-4.257,1.156-4.043,2.174-3.96S369.185,216.6,369,218.875Zm-.765-6.551v0s-.747-.687-3.254-.393c1.132-2.892,4.051-2.5,4.651,2.378A3.433,3.433,0,0,0,368.237,212.324Z" transform="translate(-289.684 -183.16)" fill="#187ae1"/>
</svg>
