<svg xmlns="http://www.w3.org/2000/svg" width="23.999" height="24" viewBox="0 0 23.999 24">
  <g id="Group_4757" data-name="Group 4757" transform="translate(-114 -56)">
    <path id="Path_7485" data-name="Path 7485" d="M-1969-1116h-18a3,3,0,0,1-3-3v-18a3,3,0,0,1,3-3h18a3,3,0,0,1,3,3v18A3,3,0,0,1-1969-1116Z" transform="translate(2104 1196)" fill="#878f9b" opacity="0"/>
    <g id="megaphone" transform="translate(116.4 58.4)">
      <path id="Path_7728" data-name="Path 7728" d="M18.161,3.055l-12.5,5H2.274A2.277,2.277,0,0,0,0,10.326v2.779a2.064,2.064,0,0,0,2.274,2.021h.859l.918,6.423a.757.757,0,0,0,.75.651H7.832a.757.757,0,0,0,.754-.843l-.6-5.3L18.16,20.124a.757.757,0,0,0,1.04-.7V3.758a.757.757,0,0,0-1.039-.7ZM1.516,13.105V10.326a.759.759,0,0,1,.758-.758H5.053V13.61H2.274C1.928,13.61,1.516,13.523,1.516,13.105Zm5.468,7.579H5.457l-.793-5.558h1l.729.291Zm10.7-2.382L7.4,14.188a.756.756,0,0,0-.132-.054l-.7-.28V9.324L17.684,4.878Z" transform="translate(0 -3)" fill="#878f9b"/>
    </g>
  </g>
</svg>
