<svg xmlns="http://www.w3.org/2000/svg" width="40" height="40" viewBox="0 0 40 40">
  <g id="delet" transform="translate(-22 -237)">
    <circle id="Ellipse_55" data-name="Ellipse 55" cx="20" cy="20" r="20" transform="translate(22 237)" fill="#dc2525" opacity="0.1"/>
    <g id="Group_4789" data-name="Group 4789" transform="translate(30 245)">
      <path id="Path_7742" data-name="Path 7742" d="M0,0H24V24H0Z" fill="none"/>
      <path id="Line_28" data-name="Line 28" d="M16,.75H0A.75.75,0,0,1-.75,0,.75.75,0,0,1,0-.75H16a.75.75,0,0,1,.75.75A.75.75,0,0,1,16,.75Z" transform="translate(4 7)" fill="#dc2525"/>
      <path id="Line_29" data-name="Line 29" d="M0,6.75A.75.75,0,0,1-.75,6V0A.75.75,0,0,1,0-.75.75.75,0,0,1,.75,0V6A.75.75,0,0,1,0,6.75Z" transform="translate(10 11)" fill="#dc2525"/>
      <path id="Line_30" data-name="Line 30" d="M0,6.75A.75.75,0,0,1-.75,6V0A.75.75,0,0,1,0-.75.75.75,0,0,1,.75,0V6A.75.75,0,0,1,0,6.75Z" transform="translate(14 11)" fill="#dc2525"/>
      <path id="Path_7743" data-name="Path 7743" d="M16,21.75H8a2.753,2.753,0,0,1-2.75-2.716l-1-11.971a.75.75,0,1,1,1.495-.125l1,12q0,.031,0,.062A1.251,1.251,0,0,0,8,20.25h8A1.251,1.251,0,0,0,17.25,19q0-.031,0-.062l1-12a.75.75,0,1,1,1.495.125l-1,11.971A2.753,2.753,0,0,1,16,21.75Z" fill="#dc2525"/>
      <path id="Path_7744" data-name="Path 7744" d="M15,7.75A.75.75,0,0,1,14.25,7V4A.25.25,0,0,0,14,3.75H10A.25.25,0,0,0,9.75,4V7a.75.75,0,0,1-1.5,0V4A1.752,1.752,0,0,1,10,2.25h4A1.752,1.752,0,0,1,15.75,4V7A.75.75,0,0,1,15,7.75Z" fill="#dc2525"/>
    </g>
  </g>
</svg>
