<svg xmlns="http://www.w3.org/2000/svg" width="40" height="40" viewBox="0 0 40 40">
  <g id="edit" transform="translate(-76 -238)">
    <circle id="Ellipse_56" data-name="Ellipse 56" cx="20" cy="20" r="20" transform="translate(76 238)" fill="#3845e5" opacity="0.1"/>
    <g id="Group_4790" data-name="Group 4790" transform="translate(84 246)">
      <path id="Path_7745" data-name="Path 7745" d="M0,0H24V24H0Z" fill="none"/>
      <path id="Path_7746" data-name="Path 7746" d="M8,20.75H4A.75.75,0,0,1,3.25,20V16a.75.75,0,0,1,.22-.53l10.5-10.5A3.578,3.578,0,0,1,19.03,10.03L8.53,20.53A.75.75,0,0,1,8,20.75Zm-3.25-1.5H7.689L17.97,8.97A2.078,2.078,0,0,0,15.03,6.03L4.75,16.311Z" fill="#3845e5"/>
      <path id="Line_31" data-name="Line 31" d="M4,4.75a.748.748,0,0,1-.53-.22l-4-4A.75.75,0,0,1-.53-.53.75.75,0,0,1,.53-.53l4,4A.75.75,0,0,1,4,4.75Z" transform="translate(13.5 6.5)" fill="#3845e5"/>
    </g>
  </g>
</svg>
