<svg xmlns="http://www.w3.org/2000/svg" width="32" height="32" viewBox="0 0 32 32">
  <g id="Group_4729" data-name="Group 4729" transform="translate(-214 -89)">
    <rect id="Rectangle_4515" data-name="Rectangle 4515" width="32" height="32" transform="translate(214 89)" fill="#fff" opacity="0"/>
    <g id="car_1_" data-name="car (1)" transform="translate(214.84 -18.308)">
      <g id="Group_4732" data-name="Group 4732" transform="translate(0 115.825)">
        <g id="Group_4731" data-name="Group 4731" transform="translate(0 0)">
          <path id="Path_6147" data-name="Path 6147" d="M50.416,261.093a2.518,2.518,0,1,0,2.518,2.518A2.518,2.518,0,0,0,50.416,261.093Z" transform="translate(-44.685 -251.349)" fill="#187ae1"/>
          <path id="Path_6148" data-name="Path 6148" d="M360.939,336.177h0Z" transform="translate(-336.728 -321.396)" fill="#187ae1"/>
          <path id="Path_6149" data-name="Path 6149" d="M29.323,122.336l-2.807-1.281a.531.531,0,0,1-.233-.2l-2.432-3.877a2.456,2.456,0,0,0-2.1-1.152H11.865a2.479,2.479,0,0,0-1.971.966l-3.128,4.1a.527.527,0,0,1-.282.193l-5.228,1.431A1.716,1.716,0,0,0,0,124.177v1.912a1.717,1.717,0,0,0,1.7,1.743h.455a3.59,3.59,0,0,1,7.16,0h11.32a3.59,3.59,0,0,1,7.16,0h.833a1.717,1.717,0,0,0,1.7-1.743v-2.182A1.714,1.714,0,0,0,29.323,122.336Z" transform="translate(0 -115.825)" fill="#187ae1"/>
          <path id="Path_6150" data-name="Path 6150" d="M325.916,261.093a2.518,2.518,0,1,0,2.518,2.518A2.518,2.518,0,0,0,325.916,261.093Z" transform="translate(-301.705 -251.349)" fill="#187ae1"/>
        </g>
      </g>
    </g>
  </g>
</svg>
