<svg xmlns="http://www.w3.org/2000/svg" width="32" height="32" viewBox="0 0 32 32">
  <g id="Group_4729" data-name="Group 4729" transform="translate(-214 -89)">
    <rect id="Rectangle_4515" data-name="Rectangle 4515" width="32" height="32" transform="translate(214 89)" fill="#fff" opacity="0"/>
    <g id="car" transform="translate(215.09 -18.637)">
      <g id="Group_4728" data-name="Group 4728" transform="translate(0 115.703)">
        <path id="Union_5" data-name="Union 5" d="M-2914.155-1060.428h-9.89A3.647,3.647,0,0,1-2926.6-1058a3.658,3.658,0,0,1-.919.118,3.641,3.641,0,0,1-3.469-2.542h-.2a2.921,2.921,0,0,1-2.9-2.939v-1.742a2.922,2.922,0,0,1,2.138-2.813l4.472-1.225,2.68-3.507a3.629,3.629,0,0,1,2.869-1.412h9.024a3.561,3.561,0,0,1,3.037,1.682l2.074,3.309,2.327,1.063a2.912,2.912,0,0,1,1.7,2.66v1.985a2.921,2.921,0,0,1-2.9,2.939h-.545a3.647,3.647,0,0,1-2.557,2.424,3.663,3.663,0,0,1-.919.118A3.641,3.641,0,0,1-2914.155-1060.428Zm1.55-1.111a1.921,1.921,0,0,0,1.919,1.919,1.929,1.929,0,0,0,1.363-.567,1.885,1.885,0,0,0,.557-1.351,1.921,1.921,0,0,0-1.919-1.921A1.922,1.922,0,0,0-2912.605-1061.539Zm-16.835,0a1.921,1.921,0,0,0,1.919,1.919,1.93,1.93,0,0,0,1.363-.567,1.889,1.889,0,0,0,.558-1.351,1.922,1.922,0,0,0-1.92-1.921A1.922,1.922,0,0,0-2929.441-1061.539Zm22.346-.611h.43a1.192,1.192,0,0,0,1.167-1.092v-2.11a1.194,1.194,0,0,0-.692-1.094l-2.553-1.166a.859.859,0,0,1-.373-.329l-2.21-3.53a1.864,1.864,0,0,0-1.58-.873h-9.024a1.9,1.9,0,0,0-1.509.735l-2.844,3.729a.837.837,0,0,1-.455.311l-4.764,1.3a1.2,1.2,0,0,0-.873,1.156v1.743a1.2,1.2,0,0,0,1.175,1.217h.088a3.652,3.652,0,0,1,1.011-1.954,3.645,3.645,0,0,1,2.18-1.045,3.628,3.628,0,0,1,.407-.022,3.63,3.63,0,0,1,3.584,3.021h9.653a3.658,3.658,0,0,1,1.012-1.954,3.645,3.645,0,0,1,2.18-1.045,3.621,3.621,0,0,1,.407-.022A3.63,3.63,0,0,1-2907.094-1062.15Z" transform="translate(2933.84 1073.816)" fill="#878f9b"/>
      </g>
    </g>
  </g>
</svg>
