<svg xmlns="http://www.w3.org/2000/svg" width="24" height="24" viewBox="0 0 24 24">
  <path id="Path_6145" data-name="Path 6145" d="M13.25,1.25a2.1,2.1,0,0,1,1.5.62l9.883,9.882a2.119,2.119,0,0,1-2.2,3.5v7.885a2.12,2.12,0,0,1-2.118,2.118H17.486a2.12,2.12,0,0,1-2.118-2.118V20.309a.707.707,0,0,0-.706-.706H11.838a.707.707,0,0,0-.706.706v2.824A2.12,2.12,0,0,1,9.015,25.25H6.191a2.12,2.12,0,0,1-2.118-2.118V15.248a2.118,2.118,0,0,1-2.2-3.5L11.753,1.87A2.1,2.1,0,0,1,13.25,1.25Zm9.883,12.706a.706.706,0,0,0,.5-1.205L13.749,2.869a.706.706,0,0,0-1,0L2.869,12.751a.706.706,0,1,0,1,1l1.619-1.62v11a.707.707,0,0,0,.706.706H9.015a.707.707,0,0,0,.706-.706V20.309a2.12,2.12,0,0,1,2.118-2.118h2.824a2.12,2.12,0,0,1,2.118,2.118v2.824a.707.707,0,0,0,.706.706h2.824a.707.707,0,0,0,.706-.706v-11l1.619,1.619A.7.7,0,0,0,23.133,13.956Z" transform="translate(-1.25 -1.25)" fill="#878f9b"/>
</svg>
