<svg xmlns="http://www.w3.org/2000/svg" width="24" height="22.873" viewBox="0 0 24 22.873">
  <g id="star_1_" data-name="star (1)" transform="translate(0 -12.025)">
    <g id="Group_4734" data-name="Group 4734" transform="translate(2.992 13.271)">
      <g id="Group_4733" data-name="Group 4733" transform="translate(0 0)">
        <path id="Path_6151" data-name="Path 6151" d="M80.246,43.812l-3.962-.576-1.772-3.59a1.867,1.867,0,0,0-3.348,0l-1.772,3.59-3.962.576A1.867,1.867,0,0,0,64.4,47l2.867,2.795-.677,3.946a1.867,1.867,0,0,0,2.708,1.968l3.544-1.863,3.544,1.863a1.867,1.867,0,0,0,2.708-1.968l-.677-3.946L81.281,47A1.867,1.867,0,0,0,80.246,43.812Z" transform="translate(-63.83 -38.606)" fill="#187ae1"/>
      </g>
    </g>
    <g id="Group_4736" data-name="Group 4736" transform="translate(3.912 12.025)">
      <g id="Group_4735" data-name="Group 4735" transform="translate(0 0)">
        <path id="Path_6152" data-name="Path 6152" d="M85.85,13.671l-.957-1.317A.8.8,0,0,0,83.6,13.3l.957,1.317a.8.8,0,0,0,1.294-.94Z" transform="translate(-83.446 -12.025)" fill="#187ae1"/>
      </g>
    </g>
    <g id="Group_4738" data-name="Group 4738" transform="translate(0 24.919)">
      <g id="Group_4737" data-name="Group 4737" transform="translate(0)">
        <path id="Path_6153" data-name="Path 6153" d="M3.141,287.663a.8.8,0,0,0-1.008-.514l-1.579.513a.8.8,0,0,0,.494,1.522l1.579-.513A.8.8,0,0,0,3.141,287.663Z" transform="translate(0 -287.11)" fill="#187ae1"/>
      </g>
    </g>
    <g id="Group_4740" data-name="Group 4740" transform="translate(17.532 12.025)">
      <g id="Group_4739" data-name="Group 4739" transform="translate(0 0)">
        <path id="Path_6154" data-name="Path 6154" d="M376.236,12.177a.8.8,0,0,0-1.117.177l-.957,1.317a.8.8,0,0,0,1.294.94l.957-1.317A.8.8,0,0,0,376.236,12.177Z" transform="translate(-374.009 -12.025)" fill="#187ae1"/>
      </g>
    </g>
    <g id="Group_4742" data-name="Group 4742" transform="translate(20.82 24.919)">
      <g id="Group_4741" data-name="Group 4741">
        <path id="Path_6155" data-name="Path 6155" d="M446.79,287.662l-1.579-.513a.8.8,0,0,0-.494,1.522l1.579.513a.8.8,0,1,0,.494-1.522Z" transform="translate(-444.163 -287.109)" fill="#187ae1"/>
      </g>
    </g>
    <g id="Group_4744" data-name="Group 4744" transform="translate(11.2 31.674)">
      <g id="Group_4743" data-name="Group 4743">
        <path id="Path_6156" data-name="Path 6156" d="M239.734,431.206a.8.8,0,0,0-.8.8v1.624a.8.8,0,1,0,1.6,0v-1.624A.8.8,0,0,0,239.734,431.206Z" transform="translate(-238.934 -431.206)" fill="#187ae1"/>
      </g>
    </g>
  </g>
</svg>
