<svg xmlns="http://www.w3.org/2000/svg" width="24" height="22.873" viewBox="0 0 24 22.873">
  <g id="star_2_" data-name="star (2)" transform="translate(0.001 -12.023)">
    <g id="Group_4746" data-name="Group 4746" transform="translate(2.991 13.269)">
      <g id="Group_4745" data-name="Group 4745" transform="translate(0 0)">
        <path id="Path_6158" data-name="Path 6158" d="M80.247,43.81l-3.962-.576-1.772-3.59a1.867,1.867,0,0,0-3.348,0l-1.772,3.59-3.962.576A1.867,1.867,0,0,0,64.4,46.994l2.867,2.795-.677,3.946A1.867,1.867,0,0,0,69.3,55.7l3.544-1.863L76.383,55.7a1.868,1.868,0,0,0,2.708-1.968l-.677-3.946,2.867-2.795A1.867,1.867,0,0,0,80.247,43.81Zm-.082,2.038L77,48.937a.8.8,0,0,0-.23.708l.748,4.361a.266.266,0,0,1-.387.281l-3.916-2.059a.8.8,0,0,0-.745,0l-3.916,2.059a.266.266,0,0,1-.387-.281l.748-4.361a.8.8,0,0,0-.23-.708l-3.168-3.088a.266.266,0,0,1,.148-.455l4.378-.636a.8.8,0,0,0,.6-.438L72.6,40.352a.266.266,0,0,1,.478,0l1.958,3.968a.8.8,0,0,0,.6.438l4.378.636A.266.266,0,0,1,80.165,45.848Z" transform="translate(-63.831 -38.604)" fill="#878f9b"/>
      </g>
    </g>
    <g id="Group_4748" data-name="Group 4748" transform="translate(3.911 12.023)">
      <g id="Group_4747" data-name="Group 4747" transform="translate(0 0)">
        <path id="Path_6159" data-name="Path 6159" d="M85.85,13.67l-.957-1.317a.8.8,0,0,0-1.294.94l.957,1.317a.8.8,0,0,0,1.294-.94Z" transform="translate(-83.446 -12.023)" fill="#878f9b"/>
      </g>
    </g>
    <g id="Group_4750" data-name="Group 4750" transform="translate(-0.001 24.918)">
      <g id="Group_4749" data-name="Group 4749" transform="translate(0 0)">
        <path id="Path_6160" data-name="Path 6160" d="M3.14,287.662a.8.8,0,0,0-1.008-.514l-1.579.513a.8.8,0,1,0,.494,1.522l1.579-.513A.8.8,0,0,0,3.14,287.662Z" transform="translate(0.001 -287.109)" fill="#878f9b"/>
      </g>
    </g>
    <g id="Group_4752" data-name="Group 4752" transform="translate(17.531 12.024)">
      <g id="Group_4751" data-name="Group 4751" transform="translate(0 0)">
        <path id="Path_6161" data-name="Path 6161" d="M376.236,12.178a.8.8,0,0,0-1.117.177l-.957,1.317a.8.8,0,0,0,1.294.94l.957-1.317A.8.8,0,0,0,376.236,12.178Z" transform="translate(-374.009 -12.025)" fill="#878f9b"/>
      </g>
    </g>
    <g id="Group_4754" data-name="Group 4754" transform="translate(20.819 24.918)">
      <g id="Group_4753" data-name="Group 4753" transform="translate(0 0)">
        <path id="Path_6162" data-name="Path 6162" d="M446.789,287.661l-1.579-.513a.8.8,0,1,0-.494,1.522l1.579.513a.8.8,0,0,0,.494-1.522Z" transform="translate(-444.162 -287.108)" fill="#878f9b"/>
      </g>
    </g>
    <g id="Group_4756" data-name="Group 4756" transform="translate(11.199 31.673)">
      <g id="Group_4755" data-name="Group 4755">
        <path id="Path_6163" data-name="Path 6163" d="M239.734,431.205a.8.8,0,0,0-.8.8v1.624a.8.8,0,0,0,1.6,0V432A.8.8,0,0,0,239.734,431.205Z" transform="translate(-238.934 -431.205)" fill="#878f9b"/>
      </g>
    </g>
  </g>
</svg>
